<?xml version="1.0" standalone="no"?>
<!DOCTYPE svg PUBLIC "-//W3C//DTD SVG 20010904//EN"
 "http://www.w3.org/TR/2001/REC-SVG-20010904/DTD/svg10.dtd">
<svg version="1.0" xmlns="http://www.w3.org/2000/svg"
 width="1024.000000pt" height="1024.000000pt" viewBox="0 0 1024.000000 1024.000000"
 preserveAspectRatio="xMidYMid meet">

<g transform="translate(0.000000,1024.000000) scale(0.100000,-0.100000)"
fill="#000000" stroke="none">
<path d="M0 5120 l0 -5120 5120 0 5120 0 0 5120 0 5120 -5120 0 -5120 0 0
-5120z m3000 3524 c176 -41 340 -173 418 -335 94 -194 94 -380 1 -569 -32 -65
-60 -102 -118 -160 -127 -126 -263 -183 -441 -183 -181 0 -315 57 -445 187
-172 173 -226 403 -149 635 104 316 421 499 734 425z m4510 0 c176 -41 340
-173 419 -336 93 -191 93 -379 0 -567 -79 -159 -238 -288 -404 -326 -85 -20
-232 -20 -307 0 -145 38 -291 147 -384 286 -80 121 3 109 -762 109 l-665 0
-57 -59 c-79 -82 -120 -101 -220 -101 -101 0 -144 20 -220 101 l-56 59 -448 0
-448 0 -29 29 c-25 26 -29 37 -29 88 0 49 4 63 23 81 22 21 28 21 484 24 l462
3 53 52 c69 68 107 83 208 83 98 0 135 -14 206 -79 41 -38 64 -51 97 -56 23
-3 325 -5 672 -3 l630 3 6 47 c31 210 165 411 334 499 68 36 144 64 195 72 59
10 180 6 240 -9z m-4325 -1455 c254 -31 453 -132 596 -302 69 -82 109 -155
150 -278 31 -89 33 -104 37 -274 4 -176 4 -180 -18 -200 -22 -20 -40 -20 -779
-25 l-756 -5 -5 -623 -5 -624 -28 -24 c-20 -17 -40 -24 -69 -24 -34 0 -47 6
-79 39 l-39 39 0 611 0 611 -204 0 c-191 0 -205 1 -230 21 l-26 20 0 157 c0
179 12 249 62 367 121 286 379 472 713 514 103 13 575 13 680 0z m4595 -13
c277 -57 494 -222 615 -470 64 -130 76 -185 82 -373 8 -226 25 -209 -218 -215
-172 -4 -193 -6 -205 -23 -11 -15 -14 -96 -14 -413 l0 -395 48 -46 c74 -72
105 -198 68 -284 -16 -39 -95 -114 -141 -133 -72 -30 -176 -14 -238 37 -123
101 -127 262 -11 376 l54 53 0 415 0 415 -715 0 c-785 0 -748 -3 -797 60 l-24
30 -454 -455 c-250 -250 -457 -461 -462 -468 -4 -8 -3 -29 2 -48 6 -19 10 -63
10 -99 0 -55 -5 -73 -28 -111 -38 -59 -107 -117 -149 -125 -37 -7 -145 0 -181
11 -21 7 -82 -50 -561 -529 -518 -518 -538 -536 -574 -536 -48 0 -114 58 -123
108 -7 33 1 41 540 581 l546 548 0 67 c0 81 14 116 71 180 56 63 105 85 190
86 l67 0 507 513 c280 281 525 535 546 562 38 51 60 98 79 172 15 61 119 210
192 279 131 121 282 198 448 228 127 23 142 24 455 21 229 -1 308 -6 375 -19z
m-4775 -2457 c76 -16 205 -83 268 -140 79 -70 147 -177 183 -285 57 -173 31
-372 -66 -523 -135 -209 -377 -325 -608 -291 -156 22 -315 111 -407 227 -89
112 -145 269 -145 403 0 142 71 315 173 426 156 167 369 232 602 183z m4515
-1 c63 -15 176 -70 235 -115 158 -121 256 -342 241 -540 -20 -259 -193 -479
-439 -559 -145 -47 -321 -35 -464 32 -220 104 -366 352 -350 594 13 204 109
378 270 491 148 103 330 138 507 97z m-4305 -1458 c219 -32 373 -105 513 -242
79 -78 124 -146 179 -268 23 -52 52 -103 64 -112 19 -17 56 -18 441 -18 466 0
443 -3 513 70 59 62 81 70 184 70 109 0 128 -7 194 -69 29 -26 62 -53 74 -60
14 -7 97 -11 242 -11 l220 0 30 -37 c42 -50 44 -117 5 -154 l-26 -24 -202 4
c-237 4 -239 3 -326 -92 -67 -74 -97 -87 -202 -87 -107 1 -148 19 -217 98 -30
34 -62 64 -73 68 -10 3 -208 7 -439 9 l-419 4 0 -85 c0 -98 -14 -129 -64 -141
-17 -5 -507 -6 -1089 -3 -1044 5 -1059 5 -1074 25 -12 17 -14 50 -10 195 6
204 15 248 89 400 46 95 61 115 152 205 149 147 288 219 484 249 105 17 652
21 757 6z m4600 -17 c180 -45 294 -109 420 -237 101 -102 143 -167 192 -297
40 -107 52 -190 53 -361 0 -115 -2 -130 -20 -148 -19 -19 -34 -20 -437 -20
-1625 -1 -1725 -1 -1740 11 -36 31 -41 61 -37 209 6 182 23 259 85 385 82 170
204 293 379 384 93 48 129 59 255 82 86 16 145 18 435 15 294 -3 345 -6 415
-23z"/>
</g>
</svg>
